<svg width="200" height="200" viewBox="0 0 200 200" xmlns="http://www.w3.org/2000/svg"><mask id="satori_om-id"><rect x="0" y="0" width="200" height="200" fill="#fff"/></mask><rect x="0" y="0" width="200" height="200" fill="#FFF"/><clipPath id="satori_cp-id-0"><rect x="63" y="23" width="75" height="75"/></clipPath><mask id="satori_om-id-0"><rect x="63" y="23" width="75" height="75" fill="#fff"/></mask><image x="63" y="23" width="75" height="75" href="data:image/svg+xml;utf8,%3Csvg  xmlns=%22http://www.w3.org/2000/svg%22 fill=%22%23000%22 width=%22NaN%22 height=%22null%22 viewBox=%220 0 960 960%22%3E%3Cpath d=%22m723 445-38 34q-11 10-28 11.5t-31-8.5q-14-10-16.5-27t1.5-30l17-58-43-24q-14-8-18-22.5t1-30.5q5-16 17-24t29-8h49l15-45q5-15 16.5-26.5T723 175q17 0 28.5 11.5T768 213l15 45h49q15 0 28 8.5t18 23.5q5 14 1 29.5T860 343l-43 24 17 58q5 14 2.5 30.5T820 482q-14 9-31 8t-28-11l-38-34Zm0-60q17 0 28.5-11.5T763 345q0-17-11.5-28.5T723 305q-17 0-28.5 11.5T683 345q0 17 11.5 28.5T723 385ZM529 825q22 54-15.5 102.5T415 976q-32 0-58-15.5T316 913q-67 7-122-47.5T143 744q-30-16-46.5-48.5T80 634q0-67 47-99.5t113-3.5l60 24q17-37 49.5-57.5T421 475v-86h49v90q41 8 72 43t38 67h90v50h-86q-3 39-23 71.5T504 760l25 65Zm-231 29q-3-27 2-55.5t15-55.5q-27 14-55.5 17t-57.5-1q2 33 33 64t63 31Zm-74-153q40 0 84.5-21.5T368 648l-142-58q-25-11-55.5 2.5T140 632q0 26 33.5 47.5T224 701Zm191 215q31 0 49.5-20.5T472 847l-60-155q-18 29-36 61.5T358 836q0 20 14.5 50t42.5 30Zm65-212q26-15 35-36t9-45q0-35-25.5-60.5T438 537q-24 0-46.5 11T358 584l87 34 35 86Zm-165 39Z%22%3E%3C/path%3E%3C/svg%3E" preserveAspectRatio="none" clip-path="url(#satori_cp-id-0)" mask="url(#satori_om-id-0)"/><mask id="satori_om-id-0-0"><rect x="63" y="23" width="0" height="75" fill="#fff"/></mask><mask id="satori_om-id-1"><rect x="13" y="138" width="174" height="39" fill="#fff"/></mask><path fill="#000" d="M19.9 168.0L15.0 168.0L15.0 144.7L30.4 144.7L30.4 148.7L19.9 148.7L19.9 154.3L29.4 154.3L29.4 158.3L19.9 158.3L19.9 168.0ZM38.4 168.3L38.4 168.3Q36.7 168.3 35.4 167.7Q34.1 167.1 33.4 166.0Q32.6 164.8 32.6 163.1L32.6 163.1Q32.6 161.6 33.1 160.6Q33.7 159.6 34.6 159.0Q35.5 158.4 36.7 158.1Q37.9 157.8 39.2 157.7L39.2 157.7Q40.7 157.5 41.6 157.4Q42.6 157.3 43.0 157.0Q43.4 156.7 43.4 156.1L43.4 156.1L43.4 156.1Q43.4 155.0 42.7 154.4Q42.0 153.8 40.8 153.8L40.8 153.8Q39.5 153.8 38.7 154.4Q38.0 155.0 37.7 155.8L37.7 155.8L33.2 155.5Q33.6 153.9 34.6 152.7Q35.6 151.5 37.2 150.9Q38.7 150.3 40.8 150.3L40.8 150.3Q42.3 150.3 43.6 150.6Q45.0 151.0 46.0 151.7Q47.0 152.4 47.6 153.5Q48.2 154.6 48.2 156.2L48.2 156.2L48.2 168.0L43.6 168.0L43.6 165.5L43.5 165.5Q43.1 166.3 42.4 167.0Q41.7 167.6 40.7 167.9Q39.7 168.3 38.4 168.3ZM39.8 164.9L39.8 164.9Q40.9 164.9 41.7 164.5Q42.5 164.1 43.0 163.4Q43.4 162.6 43.4 161.7L43.4 161.7L43.4 159.9Q43.2 160.0 42.8 160.1Q42.4 160.2 41.9 160.3Q41.4 160.4 41.0 160.5Q40.5 160.6 40.1 160.6L40.1 160.6Q39.2 160.8 38.6 161.0Q37.9 161.3 37.6 161.8Q37.2 162.2 37.2 162.9L37.2 162.9Q37.2 163.9 38.0 164.4Q38.7 164.9 39.8 164.9ZM52 144.7L56.8 144.7L56.8 168.0L52 168.0L52 144.7ZM68.3 159.3L65.1 162.9L65.1 157.1L65.8 157.1L71.4 150.5L77.0 150.5L69.4 159.3L68.3 159.3ZM65.5 168.0L60.7 168.0L60.7 144.7L65.5 144.7L65.5 168.0ZM77.3 168.0L71.6 168.0L66.5 160.3L69.7 156.9L77.3 168.0Z M92.0 168.0L87.0 168.0L87.0 144.7L92.0 144.7L92.0 154.9L92.3 154.9L100.6 144.7L106.5 144.7L97.9 155.1L106.6 168.0L100.8 168.0L94.4 158.4L92.0 161.3L92.0 168.0ZM115.6 168.3L115.6 168.3Q113.0 168.3 111.1 167.2Q109.1 166.0 108.1 164.0Q107.0 162.0 107.0 159.3L107.0 159.3Q107.0 156.6 108.1 154.6Q109.1 152.5 111.1 151.4Q113.0 150.3 115.6 150.3L115.6 150.3Q118.3 150.3 120.2 151.4Q122.1 152.5 123.2 154.6Q124.2 156.6 124.2 159.3L124.2 159.3Q124.2 162.0 123.2 164.0Q122.1 166.0 120.2 167.2Q118.3 168.3 115.6 168.3ZM115.7 164.5L115.7 164.5Q116.9 164.5 117.7 163.9Q118.5 163.2 118.9 162.0Q119.3 160.8 119.3 159.3L119.3 159.3Q119.3 157.7 118.9 156.5Q118.5 155.3 117.7 154.7Q116.9 154.0 115.7 154.0L115.7 154.0Q114.4 154.0 113.6 154.7Q112.8 155.3 112.4 156.5Q112.0 157.7 112.0 159.3L112.0 159.3Q112.0 160.8 112.4 162.0Q112.8 163.2 113.6 163.9Q114.4 164.5 115.7 164.5ZM112.2 148.1L112.2 148.1Q111.2 148.1 110.5 147.4Q109.8 146.7 109.8 145.8L109.8 145.8Q109.8 144.8 110.5 144.2Q111.2 143.5 112.2 143.5L112.2 143.5Q113.2 143.5 113.8 144.2Q114.5 144.8 114.5 145.8L114.5 145.8Q114.5 146.7 113.8 147.4Q113.2 148.1 112.2 148.1ZM119.1 148.1L119.1 148.1Q118.1 148.1 117.4 147.4Q116.7 146.7 116.7 145.8L116.7 145.8Q116.7 144.8 117.4 144.2Q118.1 143.5 119.1 143.5L119.1 143.5Q120.1 143.5 120.8 144.2Q121.5 144.8 121.5 145.8L121.5 145.8Q121.5 146.7 120.8 147.4Q120.1 148.1 119.1 148.1ZM132.2 174.5L127.4 174.5L127.4 150.5L132.2 150.5L132.2 153.4L132.4 153.4Q132.7 152.7 133.3 152.0Q133.9 151.3 134.9 150.8Q135.9 150.3 137.3 150.3L137.3 150.3Q139.3 150.3 140.9 151.3Q142.5 152.3 143.4 154.3Q144.4 156.2 144.4 159.2L144.4 159.2Q144.4 162.2 143.5 164.2Q142.5 166.2 140.9 167.2Q139.3 168.2 137.3 168.2L137.3 168.2Q135.9 168.2 134.9 167.8Q134.0 167.3 133.3 166.6Q132.7 165.9 132.4 165.2L132.4 165.2L132.2 165.2L132.2 174.5ZM132.1 159.2L132.1 159.2Q132.1 160.8 132.6 161.9Q133.0 163.1 133.8 163.7Q134.6 164.4 135.8 164.4L135.8 164.4Q137.0 164.4 137.8 163.7Q138.6 163.1 139.0 161.9Q139.5 160.7 139.5 159.2L139.5 159.2Q139.5 157.7 139.0 156.6Q138.6 155.4 137.8 154.8Q137.0 154.1 135.8 154.1L135.8 154.1Q134.6 154.1 133.8 154.7Q133.0 155.4 132.6 156.5Q132.1 157.7 132.1 159.2ZM152.5 174.5L147.6 174.5L147.6 150.5L152.4 150.5L152.4 153.4L152.6 153.4Q152.9 152.7 153.5 152.0Q154.1 151.3 155.1 150.8Q156.1 150.3 157.6 150.3L157.6 150.3Q159.5 150.3 161.1 151.3Q162.7 152.3 163.7 154.3Q164.6 156.2 164.6 159.2L164.6 159.2Q164.6 162.2 163.7 164.2Q162.8 166.2 161.2 167.2Q159.6 168.2 157.6 168.2L157.6 168.2Q156.2 168.2 155.2 167.8Q154.2 167.3 153.6 166.6Q152.9 165.9 152.6 165.2L152.6 165.2L152.5 165.2L152.5 174.5ZM152.4 159.2L152.4 159.2Q152.4 160.8 152.8 161.9Q153.2 163.1 154.0 163.7Q154.9 164.4 156.0 164.4L156.0 164.4Q157.2 164.4 158.0 163.7Q158.9 163.1 159.3 161.9Q159.7 160.7 159.7 159.2L159.7 159.2Q159.7 157.7 159.3 156.6Q158.9 155.4 158.0 154.8Q157.2 154.1 156.0 154.1L156.0 154.1Q154.9 154.1 154.0 154.7Q153.2 155.4 152.8 156.5Q152.4 157.7 152.4 159.2ZM175.8 168.3L175.8 168.3Q173.1 168.3 171.2 167.2Q169.3 166.1 168.2 164.1Q167.2 162.1 167.2 159.3L167.2 159.3Q167.2 156.6 168.2 154.6Q169.3 152.5 171.2 151.4Q173.1 150.3 175.6 150.3L175.6 150.3Q177.4 150.3 178.8 150.8Q180.3 151.4 181.5 152.5Q182.6 153.6 183.2 155.2Q183.8 156.9 183.8 159.1L183.8 159.1L183.8 160.5L169.1 160.5L169.1 157.5L179.3 157.5Q179.3 156.4 178.8 155.6Q178.4 154.8 177.6 154.3Q176.8 153.9 175.7 153.9L175.7 153.9Q174.6 153.9 173.8 154.4Q172.9 154.9 172.4 155.7Q172.0 156.6 171.9 157.6L171.9 157.6L171.9 160.5Q171.9 161.8 172.4 162.7Q172.9 163.7 173.8 164.2Q174.7 164.7 175.9 164.7L175.9 164.7Q176.7 164.7 177.4 164.5Q178.0 164.2 178.5 163.8Q179.0 163.3 179.3 162.7L179.3 162.7L183.7 163.0Q183.4 164.6 182.3 165.8Q181.3 167.0 179.6 167.6Q178.0 168.3 175.8 168.3Z "/></svg>